<svg width="21" height="42" viewBox="0 0 21 42" fill="none" xmlns="http://www.w3.org/2000/svg">
<path d="M20.52 42C16.84 42 13.42 41.04 10.26 39.12C7.1 37.2 4.6 34.64 2.76 31.44C0.92 28.2 0 24.72 0 21C0 17.28 0.92 13.82 2.76 10.62C4.64 7.38 7.14 4.8 10.26 2.88C13.42 0.960001 16.86 0 20.58 0H21V0.360004V0.180002V0.6H20.64H20.58C16.98 0.6 13.64 1.54 10.56 3.42C7.52 5.26 5.1 7.74 3.3 10.86C1.5 13.98 0.6 17.36 0.6 21C0.6 24.64 1.5 28.02 3.3 31.14C5.1 34.26 7.52 36.76 10.56 38.64C13.6 40.48 16.92 41.4 20.52 41.4H20.58H21V41.76V41.58V42H20.64H20.52Z" fill="#0A3422"/>
</svg>
