<svg width="22" height="42" viewBox="0 0 22 42" fill="none" xmlns="http://www.w3.org/2000/svg">
<path d="M0.655781 42C4.33578 42 7.75578 41.04 10.9158 39.12C14.0758 37.2 16.5758 34.64 18.4158 31.44C20.2558 28.2 21.1758 24.72 21.1758 21C21.1758 17.28 20.2558 13.82 18.4158 10.62C16.5358 7.38 14.0358 4.8 10.9158 2.88C7.75578 0.960001 4.31578 0 0.595779 0H0.175781V0.360004V0.180002V0.6H0.535782H0.595779C4.19578 0.6 7.53578 1.54 10.6158 3.42C13.6558 5.26 16.0758 7.74 17.8758 10.86C19.6758 13.98 20.5758 17.36 20.5758 21C20.5758 24.64 19.6758 28.02 17.8758 31.14C16.0758 34.26 13.6558 36.76 10.6158 38.64C7.57578 40.48 4.25578 41.4 0.655781 41.4H0.595779H0.175781V41.76V41.58V42H0.535782H0.655781Z" fill="#0A3422"/>
</svg>
